<?xml version="1.0" encoding="utf-8"?>
<!-- Generator: Adobe Illustrator 19.0.0, SVG Export Plug-In . SVG Version: 6.00 Build 0)  -->
<svg version="1.1" id="Laag_1" xmlns="http://www.w3.org/2000/svg" xmlns:xlink="http://www.w3.org/1999/xlink" x="0px" y="0px"
	 viewBox="0 0 24 24" style="enable-background:new 0 0 24 24;" xml:space="preserve">
<style type="text/css">
	.st0{fill:#E6E6E6;}
</style>
<g id="XMLID_15_">
	<path id="XMLID_20_" class="st0" d="M15,17c-1.2,0-3-1-4.4-4.7C10,10.6,9,9.5,8.1,9.5c-1,0-2.4,1.2-3.3,3.8l-1.9-0.6
		c1-3.2,3-5.2,5.1-5.3c1.1,0,3.1,0.6,4.4,4.1C13.4,14,14.4,15,15,15c0,0,0,0,0,0c0.7,0,2-1.3,3-4.4l1.9,0.7C18.8,14.9,17,17,15,17
		C15.1,17,15,17,15,17z"/>
</g>
</svg>
